# xmcd CD database file
#
# Track frame offsets:
#	150
#	12507
#	26471
#	38960
#	52168
#	62627
#	76191
#	90398
#	100959
#	113957
#	126017
#	139697
#
# Disc length: 2020 seconds
#
# Revision: 0
# Processed by: cddbd v1.5.2PL0 Copyright (c) Steve Scherf et al.
# Submitted via: CDex 1.51
#
DISCID=9907e20c
DTITLE=Various Artist - Singing Cowboys
DYEAR=2003
DGENRE=Country
TTITLE0=Gene Autry - Deep in the Heart of Texas
TTITLE1=Jimmie Davis - Hung My Head and Cried
TTITLE2=Gene Autry - Way Out West in Texas
TTITLE3=Al Dexter - Poor Little Honky Tonk Girl
TTITLE4=Tex Ritter - Green Grow the Lilacs
TTITLE5=Eddie Dean - Fools Gold
TTITLE6=Gene Autry - No One to Call Me Darling
TTITLE7=Roy Rogers - You Waited Too Long
TTITLE8=Stuart Hamblin - Whistling My Love Song to You
TTITLE9=Tex Ritter - Goodbye My Little Cherokee
TTITLE10=Eddie Dean - This Lonely World
TTITLE11=Bob Wills - Home in San Antone
EXTD=YEAR: 2003
EXTT0=
EXTT1=
EXTT2=
EXTT3=
EXTT4=
EXTT5=
EXTT6=
EXTT7=
EXTT8=
EXTT9=
EXTT10=
EXTT11=
PLAYORDER=
